G04*
G04 #@! TF.GenerationSoftware,Altium Limited,Altium Designer,22.2.1 (43)*
G04*
G04 Layer_Color=32768*
%FSLAX44Y44*%
%MOMM*%
G71*
G04*
G04 #@! TF.SameCoordinates,A1ADAAF1-E39F-4BBB-957B-7DD61066729D*
G04*
G04*
G04 #@! TF.FilePolarity,Positive*
G04*
G01*
G75*
%ADD15C,0.2000*%
D15*
X163000Y243250D02*
G03*
X142368Y277048I-38000J0D01*
G01*
X-142368D02*
G03*
X-163000Y243250I17368J-33799D01*
G01*
X142368Y277048D02*
G03*
X78245Y301500I-142368J-277048D01*
G01*
Y-301500D02*
G03*
X142368Y-277048I-78245J301500D01*
G01*
D02*
G03*
X163000Y-243250I-17368J33799D01*
G01*
X-78245Y301500D02*
G03*
X-142368Y277048I78245J-301500D01*
G01*
X-175000Y209500D02*
G03*
X-163000Y221500I0J12000D01*
G01*
Y-221500D02*
G03*
X-175000Y-209500I-12000J0D01*
G01*
X-142368Y-277048D02*
G03*
X-78245Y-301500I142368J277048D01*
G01*
X-163000Y-243250D02*
G03*
X-142368Y-277048I38000J0D01*
G01*
X284500Y90000D02*
G03*
X256500Y118000I-28000J0D01*
G01*
X-256500D02*
G03*
X-284500Y90000I0J-28000D01*
G01*
X256500Y-118000D02*
G03*
X284500Y-90000I0J28000D01*
G01*
X224500Y191500D02*
G03*
X206500Y209500I-18000J0D01*
G01*
X163000Y221500D02*
G03*
X175000Y209500I12000J0D01*
G01*
X206500Y-209500D02*
G03*
X224500Y-191500I0J18000D01*
G01*
X175000Y-209500D02*
G03*
X163000Y-221500I0J-12000D01*
G01*
X-206500Y209500D02*
G03*
X-224500Y191500I0J-18000D01*
G01*
Y-191500D02*
G03*
X-206500Y-209500I18000J0D01*
G01*
X-284500Y-90000D02*
G03*
X-256500Y-118000I28000J0D01*
G01*
X224500Y130000D02*
G03*
X236500Y118000I12000J0D01*
G01*
Y-118000D02*
G03*
X224500Y-130000I0J-12000D01*
G01*
X-236500Y118000D02*
G03*
X-224500Y130000I0J12000D01*
G01*
Y-130000D02*
G03*
X-236500Y-118000I-12000J0D01*
G01*
X-78245Y301500D02*
X78245D01*
X-78245Y-301500D02*
X78245D01*
X236500Y118000D02*
X256500D01*
X236500Y-118000D02*
X256500D01*
X-256500Y118000D02*
X-236500D01*
X-256500Y-118000D02*
X-236500D01*
X175000Y209500D02*
X206500D01*
X175000Y-209500D02*
X206500D01*
X-206500Y209500D02*
X-175000D01*
X-206500Y-209500D02*
X-175000D01*
X284500Y-90000D02*
Y90000D01*
X-284500Y-90000D02*
Y90000D01*
X224500Y130000D02*
Y191500D01*
Y-191500D02*
Y-130000D01*
X163000Y-243250D02*
Y-221500D01*
X-163000Y-243250D02*
Y-221500D01*
X-224500Y130000D02*
Y191500D01*
Y-191500D02*
Y-130000D01*
X163000Y221500D02*
Y243250D01*
X-163000Y221500D02*
Y243250D01*
M02*
