M48
;Layer_Color=9474304
;FILE_FORMAT=4:4
METRIC,LZ
;TYPE=PLATED
T1F00S00C0.5000
T2F00S00C2.5000
T3F00S00C4.1000
T4F00S00C4.5000
%
T01
X0015Y-001
Y0
Y001
X001Y0015
Y0005
Y-0005
Y-0015
X-001
X-0015Y-001
Y0
Y001
X-001Y0015
Y0005
Y-0005
T02
X-00125Y-0024325
X00125
X00035Y-0006
X-00035
T03
X002565Y-0009
Y0009
X-002565
Y-0009
T04
X-00036Y-002625
X00036
Y002625
X-00036
M30
