G04*
G04 #@! TF.GenerationSoftware,Altium Limited,Altium Designer,22.2.1 (43)*
G04*
G04 Layer_Color=8388736*
%FSLAX44Y44*%
%MOMM*%
G71*
G04*
G04 #@! TF.SameCoordinates,A1ADAAF1-E39F-4BBB-957B-7DD61066729D*
G04*
G04*
G04 #@! TF.FilePolarity,Negative*
G04*
G01*
G75*
G04:AMPARAMS|DCode=10|XSize=5.7032mm|YSize=7.2032mm|CornerRadius=1.4766mm|HoleSize=0mm|Usage=FLASHONLY|Rotation=0.000|XOffset=0mm|YOffset=0mm|HoleType=Round|Shape=RoundedRectangle|*
%AMROUNDEDRECTD10*
21,1,5.7032,4.2500,0,0,0.0*
21,1,2.7500,7.2032,0,0,0.0*
1,1,2.9532,1.3750,-2.1250*
1,1,2.9532,-1.3750,-2.1250*
1,1,2.9532,-1.3750,2.1250*
1,1,2.9532,1.3750,2.1250*
%
%ADD10ROUNDEDRECTD10*%
%ADD11O,5.7032X7.2032*%
%ADD12C,5.3032*%
%ADD13C,5.2032*%
G36*
X-7756Y-112245D02*
X-12244D01*
Y-107755D01*
X-7756D01*
Y-112245D01*
D02*
G37*
G36*
X-80868Y187049D02*
X-99132D01*
Y192951D01*
X-80868D01*
Y187049D01*
D02*
G37*
G36*
X92778Y192812D02*
X105833D01*
Y187326D01*
X92778D01*
Y174132D01*
X87222D01*
Y187326D01*
X74167D01*
Y192812D01*
X87222D01*
Y205868D01*
X92778D01*
Y192812D01*
D02*
G37*
G36*
Y-187188D02*
X105833D01*
Y-192674D01*
X92778D01*
Y-205868D01*
X87222D01*
Y-192674D01*
X74167D01*
Y-187188D01*
X87222D01*
Y-174132D01*
X92778D01*
Y-187188D01*
D02*
G37*
G36*
X-80868Y-192951D02*
X-99132D01*
Y-187049D01*
X-80868D01*
Y-192951D01*
D02*
G37*
D10*
X-36000Y-262500D02*
D03*
Y262500D02*
D03*
D11*
X36000Y-262500D02*
D03*
Y262500D02*
D03*
D12*
X256500Y-90000D02*
D03*
Y90000D02*
D03*
X-256500Y-90000D02*
D03*
Y90000D02*
D03*
D13*
X-35000Y-60000D02*
D03*
X35000D02*
D03*
X125000Y-243250D02*
D03*
X-125000D02*
D03*
M02*
